<svg id="Capa_1" data-name="Capa 1" xmlns="http://www.w3.org/2000/svg" viewBox="0 0 1193.91 511.2"><defs><style>.cls-1{fill:#fff;}.cls-2{fill:#f0f;}.cls-3{fill:#f15a24;}.cls-4{fill:#ed1c24;}.cls-5{fill:#c1272d;}.cls-6{fill:blue;}.cls-15,.cls-7{fill:#fcee21;}.cls-8{fill:aqua;}.cls-9{fill:lime;}.cls-10{fill:#ff0;}.cls-11{fill:#f7931e;}.cls-12{fill:red;}.cls-13{fill:#fbb03b;}.cls-14{fill:none;}.cls-14,.cls-15,.cls-16{stroke:#000;stroke-miterlimit:10;}.cls-16{fill:#1b1464;}</style></defs><title>grafic</title><path class="cls-1" d="M47.18,104.75V19.29H224.92c-.32.08-.63.19-1,.24-2.73.42-5.51.62-8.18,1.29-12.07,3-19.64,10.57-22.15,22.81a42.52,42.52,0,0,0,2.14,23.89A14,14,0,0,1,196,78a36.71,36.71,0,0,0-1.46,5.27c-.3,1.27-.51,2.63.76,3.53s2.46.47,3.65-.11a9.42,9.42,0,0,0,1.38-.87q2.17-1.53,4.34-3.1a1.58,1.58,0,0,1,2.34.18c1.28,1.24,2.65,2.38,4,3.54a14.92,14.92,0,0,0,7.66,3.65,53,53,0,0,0,21.18-.82c10.89-2.82,18.17-9.51,21.72-20.24,2.16-6.56,2.09-13.16.85-19.88C259.64,34.37,249.65,23.77,235,20.46c-2.34-.53-4.73-.79-7.09-1.17H263.5v181.3H47.18V105.64a1.44,1.44,0,0,1,.56.07q14.58,7.77,29.13,15.58a2.32,2.32,0,0,1,1.28,2.58C78,124.93,78,126,78,127.36L82.77,126c.74,1.37,1.39,2.79,2.24,4.08a21.11,21.11,0,0,0,2.33,2.68c5.46,6,10.61,12.3,16.46,17.89,5.44,5.21,11.56,9.74,17.52,14.38a8.51,8.51,0,0,0,4.56,1.32,33.28,33.28,0,0,0,5.59-.6l9.12-1c-.6.74-.92,1.22-1.33,1.63a9,9,0,0,0-2.78,7.64c.32,3.3.54,6.6.8,9.9.22,3,.44,5.95.67,9.15-.6-.3-1-.45-1.29-.65-5.46-3.19-10.87-6.45-16.37-9.56a57.68,57.68,0,0,1-17.51-15.54c-1.85-2.41-3.56-4.9-4.08-8a2.65,2.65,0,0,0-1.7-2.21c-2.83-1.15-5.62-2.47-8.53-3.34-6-1.82-12.33-1.44-18.54-1.66-.18,0-.37.17-.55.25a12.42,12.42,0,0,0,3.17.77c6.71.93,13.39,1.94,19.77,4.39a7.89,7.89,0,0,1,4.37,3.77c.51.95.94,2,1.41,2.93,3.72,7.64,8.81,14.19,16.3,18.33,7.25,4,14.8,7.49,22.25,11.13,1.11.54,1.64,1.1,1.4,2.36s-.43,2.77-.64,4.17h1.32c0-4,0-7.89,0-11.78,0-3.21.46-6.44.22-9.62a25.63,25.63,0,0,1,2.88-13.29,2.1,2.1,0,0,1,1.25-1c2-.37,4-.59,6-.87-.35-.93-1.28-1-2.32-.94-6.26.45-12.52.82-18.77,1.37a9.78,9.78,0,0,1-7.18-2c-12.46-9.34-23.08-20.57-33.22-32.28a10.63,10.63,0,0,1-2.35-4.54,53.9,53.9,0,0,1-1.22-9.38c-.16-4,0-8.1.19-12.14a18.55,18.55,0,0,1,1.13-5.89C88.59,90,92,82.22,95.3,74.47a5.7,5.7,0,0,1,1.46-2.2c2.65-2.12,5.41-4.12,8.17-6.19,1.46,1.32,2.94,1.85,4.64.68.19-.13.66,0,.91.15,4.7,2.85,9.73,3,14.89,1.72,6.62-1.67,9-4.47,9.57-10.95a1.14,1.14,0,0,1,.62-.78,6.4,6.4,0,0,1,1.9-.2c3.11.14,6.22.36,9.33.47,1.89.07,3.79,0,5.93,0-1.36-2.39-3.57-.95-5.29-1.67C148.85,48,154,42.64,158.68,37a3.26,3.26,0,0,0-1.23.89c-4.35,5.12-8.67,10.26-13.07,15.34-.71.82-1.71,1.83-2.66,1.93a75.11,75.11,0,0,1-7.81.09s0,0,0,0c0,.3,0,.59.05.88a9,9,0,0,1-4.76,9.31A19.5,19.5,0,0,1,112.6,67a20.42,20.42,0,0,1-2.82-1.47l.81-2.28a8.54,8.54,0,0,0-1.77,1.4c-.54.44-1.4,1.19-1.73,1-.58-.29-.92-1.15-1.26-1.82a3.36,3.36,0,0,1-.19-1.16,53.85,53.85,0,0,0-.47-5.7,5.66,5.66,0,0,1,1.61-5.56c1.41-1.31,2.93-2.5,4.39-3.75l2-1.71c-4.84-2.84-6.28-3.27-7.94-2.34l3,1.93-5,.36a25.54,25.54,0,0,0,1,3c1.1,2.34,1.13,2.32-1.36,3l-.29.08c-1.65.54-2.08,1.52-1.33,3.07.38.79.82,1.55,1.27,2.38l-1.83.76,3,3.63-10,5,.09.3,3.38-.38.14.35a34.18,34.18,0,0,1-4.7,2.65,29.93,29.93,0,0,1-4.87,1c1.79.9,4,.84,6.4.67a81.73,81.73,0,0,1-7.83,6.52Q67.4,91.09,48.46,104.09A11,11,0,0,1,47.18,104.75Zm64.95,27.77c1.31,1.55,2.42,2.68,3.33,4a121.07,121.07,0,0,0,20,21.43,8.44,8.44,0,0,0,3.29,1.44c3.18.87,6.42,1.54,9.59,2.42a3.81,3.81,0,0,1,2.8,3.31,4.85,4.85,0,0,0,2.42,3.64c.29-.6.54-1.16.82-1.69.65-1.21,1.08-2.64,2-3.56a55.1,55.1,0,0,1,7.79-6.8c5.06-3.34,10.39-6.26,15.7-9.4l1.25,3.41a17.69,17.69,0,0,0,4.63-13.54c.75,2.27,1.92.78,3.13.51-.23,3.13-.29,6.13-.76,9.07a4.62,4.62,0,0,1-2.11,2.85,103.55,103.55,0,0,1-13.18,6.64,45.1,45.1,0,0,0-11,5.66c-.36.27-.71.57-1.07.85l.26.39c.85-.51,1.73-1,2.55-1.53,3.41-2.26,7.14-1.65,9.22,1.86a30.88,30.88,0,0,1,4.6,15.9c0,6-.17,12.06-.27,18.09,0,.92,0,1.85,0,2.79h2.4c0-.27.06-.46.08-.66.4-6.11.65-12.24,1.25-18.33a20.86,20.86,0,0,0-2.35-12.3,35.91,35.91,0,0,1-2.46-5.7c-1.07-3.32,0-5.51,3.23-6.94,1.71-.77,3.42-1.54,5.12-2.33,5.84-2.72,7.53-5.85,6.95-12.26-.37-4.08-.49-8.18-.65-12.28,0-1.49.13-3,.2-4.49l.4-.11c.48,1,.92,2,1.45,3s1.17,1.86,1.77,2.79l.38-.24-3.55-27.95A23.6,23.6,0,0,0,203,106.73c-.65-1-1-1.84-1.58-2.53-1.92-2.45-3.94-4.82-5.81-7.31-3.27-4.34-6.67-8.63-8.61-13.78a34.69,34.69,0,0,0-4.26-8.25,7.94,7.94,0,0,1-1.64-5.28,4.25,4.25,0,0,0-2.58-4.4c-3-1.6-5.91-3.22-8.73-5a7,7,0,0,1-2.5-2.92c-2.54-5.84-4.9-11.76-7.33-17.65-.19-.48-.43-.94-.65-1.41.58,2.69,1.52,5.24,2.1,7.87.86,3.91,1.51,7.86,2.13,11.81a4.37,4.37,0,0,0,2.68,3.71c3.4,1.58,6.71,3.36,10,5.07a4.66,4.66,0,0,1,2.93,4c.07,1.25,0,2.5,0,3.84a16.12,16.12,0,0,0-8.3.54c-15.05,4.79-30.22,9.19-44.91,15a10.43,10.43,0,0,0-6.35,6.38c-2.85,7.73-5.67,15.47-8.56,23.19a37.75,37.75,0,0,0-2.68,15.06c.06,1.34.24,2.67.37,4Zm24.11,67.77.26-.49a40.52,40.52,0,0,0-4.73-4.19,87.26,87.26,0,0,0-20.88-10.07,13.7,13.7,0,0,1-8-5.95q-3.25-5.22-6.79-10.26A17.6,17.6,0,0,0,84.71,162c-4.31-.85-8.65-1.56-13-2.36-2.34-.43-2.91-1.06-3.22-3.36-.11-.75-.27-1.5-.42-2.36-2.29,3.69-1.29,6.56,2.57,7.77,4.09,1.28,8.2,2.54,12.28,3.85A26.67,26.67,0,0,1,97.67,176.4c2.31,3.5,5,6.71,7.65,10a2.75,2.75,0,0,0,1.53,1.05c6,.82,11.29,3.48,16.6,6.09a14.14,14.14,0,0,1,6.42,6,1.41,1.41,0,0,0,.93.74C132.61,200.33,134.43,200.29,136.24,200.29Zm5.11-120.13.66-.11c.08-.87.15-1.74.24-2.6.21-1.94.58-2.17,2.33-1.42.86.37,1.7.79,2.58,1.11.25.1.59,0,.88-.07-.14-.27-.21-.64-.43-.79a10.84,10.84,0,0,0-1.7-.86,2.93,2.93,0,0,1-2-2.68c-.11-2.15-.62-2.51-2.61-1.76a5.57,5.57,0,0,0-1.71,1.14,1.58,1.58,0,0,0,.19,2.72,2.93,2.93,0,0,1,1.3,3.32A6.4,6.4,0,0,0,141.35,80.16ZM157.56,67a5.11,5.11,0,0,0-4.17-5.19A1.47,1.47,0,0,0,151.6,63c-.77,2.23,1.2,5.77,3.5,6.19A1.89,1.89,0,0,0,157.56,67ZM114.29,83.39a7.57,7.57,0,0,0-2.57-4.9,2.58,2.58,0,0,0-3.29-.14c-1,.65-.75,1.59-.48,2.51a23.74,23.74,0,0,0,.76,2.39,4.09,4.09,0,0,0,3,2.46A2.2,2.2,0,0,0,114.29,83.39Zm37.57,87.33-4.76-5.39-.3.23c1.31,2.3,2.59,4.61,3.92,6.9.38.66,1.09,1.18,1.68.45,1.52-1.89,2.89-3.89,4.32-5.84l-.43-.36Zm-32.8-127c6.59-.91,10.08,3.21,13.49,7.78C132.23,45.39,123.56,41.21,119.06,43.7Zm8.49,16.77,1.39,1.73c.64-.6,1.56-1.08,1.85-1.82.35-.91-.74-2.09-1.61-2.05C127.92,58.37,127.89,59.31,127.55,60.47Zm-14.07.21c-1.31,1.7-1.56,3-.63,3.47,1.58.71,1.55-1,2.33-1.63Zm32.64,105.84c-2,1.75-3.27,5.44-2.55,7.06C144.41,171.28,145.2,169.09,146.12,166.52ZM123.45,65c1.7-.21,1.59-1.39,1.64-2.46s-.14-1.48-.91-1.79C124,62.07,123.72,63.46,123.45,65Zm37.72,105.27.22,0v-5.92h-.22ZM113.1,66c.84,1.17,1.87,1.11,2.58,0Z" transform="translate(-47.18 177.03)"/><path d="M227.89,19.29c2.36.38,4.75.64,7.09,1.17,14.67,3.31,24.66,13.91,27.38,28.73,1.24,6.72,1.31,13.32-.85,19.88C258,79.8,250.68,86.49,239.79,89.31a53,53,0,0,1-21.18.82A14.92,14.92,0,0,1,211,86.48c-1.34-1.16-2.71-2.3-4-3.54a1.58,1.58,0,0,0-2.34-.18q-2.16,1.58-4.34,3.1a9.42,9.42,0,0,1-1.38.87c-1.19.58-2.46,1-3.65.11s-1.06-2.26-.76-3.53A36.71,36.71,0,0,1,196,78a14,14,0,0,0-.18-10.52,42.52,42.52,0,0,1-2.14-23.89c2.51-12.24,10.08-19.8,22.15-22.81,2.67-.67,5.45-.87,8.18-1.29.33-.05.64-.16,1-.24ZM201.1,78.52l.38.12c.83-.61,1.64-1.25,2.48-1.83,1.67-1.17,2.88-1.19,4.44.11a38.67,38.67,0,0,1,2.95,2.92c2.94,3,6.17,5.43,10.63,5.46,3.41,0,6.82,0,10.23,0,10.47-.11,18-5,22.94-14.15C258.75,64.4,259,57.3,257.42,50c-1.35-6.39-3.83-12.22-8.76-16.62-9.46-8.43-20.41-10.73-32.57-7.33-9.47,2.65-15.39,8.76-17.42,18.43a38.28,38.28,0,0,0,.58,16.46,42,42,0,0,0,1.3,4.71C202.05,69.86,202.69,74.12,201.1,78.52Z" transform="translate(-47.18 177.03)"/><path d="M47.18,104.75a11,11,0,0,0,1.28-.66Q67.36,91,86.24,77.93a81.73,81.73,0,0,0,7.83-6.52c-2.38.17-4.61.23-6.4-.67a29.93,29.93,0,0,0,4.87-1,34.18,34.18,0,0,0,4.7-2.65l-.14-.35-3.38.38-.09-.3,10-5-3-3.63,1.83-.76c-.45-.83-.89-1.59-1.27-2.38-.75-1.55-.32-2.53,1.33-3.07l.29-.08c2.49-.7,2.46-.68,1.36-3a25.54,25.54,0,0,1-1-3l5-.36-3-1.93c1.66-.93,3.1-.5,7.94,2.34l-2,1.71c-1.46,1.25-3,2.44-4.39,3.75A5.66,5.66,0,0,0,105.17,57a53.85,53.85,0,0,1,.47,5.7,3.36,3.36,0,0,0,.19,1.16c.34.67.68,1.53,1.26,1.82.33.17,1.19-.58,1.73-1a8.54,8.54,0,0,1,1.77-1.4l-.81,2.28A20.42,20.42,0,0,0,112.6,67a19.5,19.5,0,0,0,16.57-1.58,9,9,0,0,0,4.76-9.31c0-.29,0-.58-.05-.88,0,0,.05-.08,0,0a75.11,75.11,0,0,0,7.81-.09c.95-.1,1.95-1.11,2.66-1.93,4.4-5.08,8.72-10.22,13.07-15.34a3.26,3.26,0,0,1,1.23-.89c-4.64,5.68-9.83,11-11.25,18.56,1.72.72,3.93-.72,5.29,1.67-2.14,0-4,.05-5.93,0-3.11-.11-6.22-.33-9.33-.47a6.4,6.4,0,0,0-1.9.2,1.14,1.14,0,0,0-.62.78c-.58,6.48-2.95,9.28-9.57,10.95-5.16,1.3-10.19,1.13-14.89-1.72-.25-.15-.72-.28-.91-.15-1.7,1.17-3.18.64-4.64-.68-2.76,2.07-5.52,4.07-8.17,6.19a5.7,5.7,0,0,0-1.46,2.2C92,82.22,88.59,90,85.4,97.77a18.55,18.55,0,0,0-1.13,5.89c-.22,4-.35,8.1-.19,12.14a53.9,53.9,0,0,0,1.22,9.38,10.63,10.63,0,0,0,2.35,4.54c10.14,11.71,20.76,22.94,33.22,32.28a9.78,9.78,0,0,0,7.18,2c6.25-.55,12.51-.92,18.77-1.37,1-.07,2,0,2.32.94-2,.28-4,.5-6,.87a2.1,2.1,0,0,0-1.25,1A25.63,25.63,0,0,0,139,178.79c.24,3.18-.18,6.41-.22,9.62-.05,3.89,0,7.79,0,11.78h-1.32c.21-1.4.37-2.8.64-4.17s-.29-1.82-1.4-2.36c-7.45-3.64-15-7.12-22.25-11.13-7.49-4.14-12.58-10.69-16.3-18.33-.47-1-.9-2-1.41-2.93a7.89,7.89,0,0,0-4.37-3.77c-6.38-2.45-13.06-3.46-19.77-4.39a12.42,12.42,0,0,1-3.17-.77c.18-.08.37-.25.55-.25,6.21.22,12.5-.16,18.54,1.66,2.91.87,5.7,2.19,8.53,3.34a2.65,2.65,0,0,1,1.7,2.21c.52,3.06,2.23,5.55,4.08,8a57.68,57.68,0,0,0,17.51,15.54c5.5,3.11,10.91,6.37,16.37,9.56.33.2.69.35,1.29.65-.23-3.2-.45-6.17-.67-9.15-.26-3.3-.48-6.6-.8-9.9a9,9,0,0,1,2.78-7.64c.41-.41.73-.89,1.33-1.63l-9.12,1a33.28,33.28,0,0,1-5.59.6,8.51,8.51,0,0,1-4.56-1.32c-6-4.64-12.08-9.17-17.52-14.38C98,145,92.8,138.73,87.34,132.73A21.11,21.11,0,0,1,85,130.05c-.85-1.29-1.5-2.71-2.24-4.08L78,127.36c.07-1.35.08-2.43.2-3.49a2.32,2.32,0,0,0-1.28-2.58q-14.57-7.79-29.13-15.58a1.44,1.44,0,0,0-.56-.07Zm43-24.45c-14.71,7.49-28.29,16-42,24.66.52.3.84.5,1.18.67l27.08,13.69c1.84.93,4,1.55,3.44,4.44,2.52-1,2.89-1.61,2.82-3.83-.2-6.46-.37-12.93-.56-19.39,0-.47,0-.93-.11-1.87l-17.4,9.4c1.53-1.18,3.13-2.23,4.75-3.27,2.28-1.47,4.68-2.78,6.81-4.44a14.12,14.12,0,0,1,5.58-2.91,2.89,2.89,0,0,0,2.15-2c1.79-4.38,3.64-8.74,5.46-13.11C89.65,81.8,89.83,81.26,90.19,80.3Z" transform="translate(-47.18 177.03)"/><path d="M112.13,132.52l-3.39,6.1c-.13-1.31-.31-2.64-.37-4a37.75,37.75,0,0,1,2.68-15.06c2.89-7.72,5.71-15.46,8.56-23.19A10.43,10.43,0,0,1,126,90c14.69-5.85,29.86-10.25,44.91-15a16.12,16.12,0,0,1,8.3-.54c0-1.34.05-2.59,0-3.84a4.66,4.66,0,0,0-2.93-4c-3.33-1.71-6.64-3.49-10-5.07a4.37,4.37,0,0,1-2.68-3.71c-.62-4-1.27-7.9-2.13-11.81-.58-2.63-1.52-5.18-2.1-7.87.22.47.46.93.65,1.41,2.43,5.89,4.79,11.81,7.33,17.65a7,7,0,0,0,2.5,2.92c2.82,1.82,5.77,3.44,8.73,5a4.25,4.25,0,0,1,2.58,4.4,7.94,7.94,0,0,0,1.64,5.28A34.69,34.69,0,0,1,187,83.11c1.94,5.15,5.34,9.44,8.61,13.78,1.87,2.49,3.89,4.86,5.81,7.31.54.69.93,1.48,1.58,2.53a23.6,23.6,0,0,1-11.64-4.33l3.55,27.95-.38.24c-.6-.93-1.23-1.83-1.77-2.79s-1-2-1.45-3l-.4.11c-.07,1.49-.25,3-.2,4.49.16,4.1.28,8.2.65,12.28.58,6.41-1.11,9.54-6.95,12.26-1.7.79-3.41,1.56-5.12,2.33-3.19,1.43-4.3,3.62-3.23,6.94a35.91,35.91,0,0,0,2.46,5.7,20.86,20.86,0,0,1,2.35,12.3c-.6,6.09-.85,12.22-1.25,18.33,0,.2-.05.39-.08.66h-2.4c0-.94,0-1.87,0-2.79.1-6,.27-12.06.27-18.09a30.88,30.88,0,0,0-4.6-15.9c-2.08-3.51-5.81-4.12-9.22-1.86-.82.55-1.7,1-2.55,1.53l-.26-.39c.36-.28.71-.58,1.07-.85a45.1,45.1,0,0,1,11-5.66A103.55,103.55,0,0,0,186,149.57a4.62,4.62,0,0,0,2.11-2.85c.47-2.94.53-5.94.76-9.07-1.21.27-2.38,1.76-3.13-.51a17.69,17.69,0,0,1-4.63,13.54l-1.25-3.41c-5.31,3.14-10.64,6.06-15.7,9.4a55.1,55.1,0,0,0-7.79,6.8c-.94.92-1.37,2.35-2,3.56-.28.53-.53,1.09-.82,1.69a4.85,4.85,0,0,1-2.42-3.64,3.81,3.81,0,0,0-2.8-3.31c-3.17-.88-6.41-1.55-9.59-2.42a8.44,8.44,0,0,1-3.29-1.44,121.07,121.07,0,0,1-20-21.43C114.55,135.2,113.44,134.07,112.13,132.52Zm65.93-17.63-.79.41a30.9,30.9,0,0,0,1.28,3,17.82,17.82,0,0,1,2,9.16c0,2.07-1.39,3.32-3.2,3-3.42-.64-6.09-2.3-7.13-5.86-.36-1.24-.68-2.48-1.06-3.7a8.2,8.2,0,0,0-.57-1.15l-.38.12c0,2.36,0,4.72,0,7.08,0,1.45.3,3.15-1.3,4s-2.86-.37-4-1.22c-2.34-1.73-4.55-3.64-6.88-5.39a3.3,3.3,0,0,0-2.11-.74,21.75,21.75,0,0,0-3.73,1.2l.87,2a16.25,16.25,0,0,1,1.52,7.92c-.21,2.59-1.17,4.68-3.71,5.76s-4.72.3-6.69-1.4a15.39,15.39,0,0,1-4.47-7.54c-.31-1-.69-2-1-3.05l-.56.15a15.31,15.31,0,0,0,.41,2.36c1.17,3.51,2.41,7,3.6,10.5.16.46.21,1,.41,1.85l-2.65-2c.52,1.68.89,3,1.35,4.3,1.26,3.5,2.51,4.33,6.2,4.18,4.49-.19,9-.5,13.47-.57a18.05,18.05,0,0,0,13.71-5.95,10,10,0,0,1,3.25-2.23,17.77,17.77,0,0,0,8.76-8.67,6.9,6.9,0,0,0,.32-5.11l-2.25,1c-.87-3.41-1.59-6.69-2.57-9.89A17.8,17.8,0,0,0,178.06,114.89Zm-38.61-1.09c-.32,3.88-.6,7.32-.88,10.77,4.8.25,5.28-.32,4.16-4.71,0-.09,0-.19-.07-.29A12.26,12.26,0,0,0,139.45,113.8Zm-8,33.7a21.89,21.89,0,0,0-7.1-6.85,1.33,1.33,0,0,0-1.18-.12,1.53,1.53,0,0,0-.59,1.22,3.2,3.2,0,0,0,.72,1.71c1.36,1.49,2.76,2.94,4.25,4.3S129.88,149,131.48,147.5Zm25.9,6.09c-2.57-.44-5-.9-7.5-1.25-1.65-.24-1.55,1.16-1.77,2.15s-.09,1.82,1.17,1.89c1.91.11,3.82.28,5.73.25S157.63,155.72,157.38,153.59Zm-13.12-39.28-.52.28c.83,2.35,1.59,4.73,2.51,7a2.06,2.06,0,0,0,3,1.13c1-.4,1.9-1,3.09-1.57Zm26.24.67-2.89-7.19-.51.13c.22,2.47.43,4.94.66,7.49Zm1.86-1c1.78-.9,2.38-1.79,1.68-2.7-1-1.35-2.32-2.53-3.5-3.78l-.28.22Z" transform="translate(-47.18 177.03)"/><path d="M136.24,200.29c-1.81,0-3.63,0-5.44,0a1.41,1.41,0,0,1-.93-.74,14.14,14.14,0,0,0-6.42-6c-5.31-2.61-10.62-5.27-16.6-6.09a2.75,2.75,0,0,1-1.53-1.05c-2.6-3.31-5.34-6.52-7.65-10A26.67,26.67,0,0,0,83,165.56c-4.08-1.31-8.19-2.57-12.28-3.85-3.86-1.21-4.86-4.08-2.57-7.77.15.86.31,1.61.42,2.36.31,2.3.88,2.93,3.22,3.36,4.32.8,8.66,1.51,13,2.36a17.6,17.6,0,0,1,11.44,7.31q3.52,5,6.79,10.26a13.7,13.7,0,0,0,8,5.95,87.26,87.26,0,0,1,20.88,10.07,40.52,40.52,0,0,1,4.73,4.19Z" transform="translate(-47.18 177.03)"/><path d="M141.35,80.16a6.4,6.4,0,0,1-.26-2,2.93,2.93,0,0,0-1.3-3.32,1.58,1.58,0,0,1-.19-2.72A5.57,5.57,0,0,1,141.31,71c2-.75,2.5-.39,2.61,1.76a2.93,2.93,0,0,0,2,2.68,10.84,10.84,0,0,1,1.7.86c.22.15.29.52.43.79-.29,0-.63.17-.88.07-.88-.32-1.72-.74-2.58-1.11-1.75-.75-2.12-.52-2.33,1.42-.09.86-.16,1.73-.24,2.6Z" transform="translate(-47.18 177.03)"/><path d="M157.56,67a1.89,1.89,0,0,1-2.46,2.11c-2.3-.42-4.27-4-3.5-6.19a1.47,1.47,0,0,1,1.79-1.11A5.11,5.11,0,0,1,157.56,67Zm-4.44-3.73c-.62,2.13.42,3.76,2.67,4.19A3.11,3.11,0,0,0,153.12,63.31Z" transform="translate(-47.18 177.03)"/><path d="M114.29,83.39a2.2,2.2,0,0,1-2.63,2.32,4.09,4.09,0,0,1-3-2.46,23.74,23.74,0,0,1-.76-2.39c-.27-.92-.55-1.86.48-2.51a2.58,2.58,0,0,1,3.29.14A7.57,7.57,0,0,1,114.29,83.39Zm-1.33.87a6.2,6.2,0,0,0-2-4.68c-.31-.29-1-.63-1.22-.49a1.94,1.94,0,0,0-.78,1.29C108.72,82.24,110.88,84.35,113,84.26Z" transform="translate(-47.18 177.03)"/><path d="M151.86,170.72l4.43-4,.43.36c-1.43,2-2.8,4-4.32,5.84-.59.73-1.3.21-1.68-.45-1.33-2.29-2.61-4.6-3.92-6.9l.3-.23Z" transform="translate(-47.18 177.03)"/><path d="M119.06,43.7c4.5-2.49,13.17,1.69,13.49,7.78C129.14,46.91,125.65,42.79,119.06,43.7Z" transform="translate(-47.18 177.03)"/><path d="M127.55,60.47c.34-1.16.37-2.1,1.63-2.14.87,0,2,1.14,1.61,2.05-.29.74-1.21,1.22-1.85,1.82Z" transform="translate(-47.18 177.03)"/><path d="M113.48,60.68l1.7,1.84c-.78.63-.75,2.34-2.33,1.63C111.92,63.72,112.17,62.38,113.48,60.68Z" transform="translate(-47.18 177.03)"/><path d="M146.12,166.52c-.92,2.57-1.71,4.76-2.55,7.06C142.85,172,144.12,168.27,146.12,166.52Z" transform="translate(-47.18 177.03)"/><path d="M123.45,65c.27-1.54.5-2.93.73-4.25.77.31,1,.61.91,1.79S125.15,64.79,123.45,65Z" transform="translate(-47.18 177.03)"/><path d="M161.17,170.27v-5.93h.22v5.92Z" transform="translate(-47.18 177.03)"/><path d="M113.1,66h2.58C115,67.09,113.94,67.15,113.1,66Z" transform="translate(-47.18 177.03)"/><path class="cls-1" d="M201.1,78.52c1.59-4.4,1-8.66-.55-12.9a42,42,0,0,1-1.3-4.71,38.28,38.28,0,0,1-.58-16.46c2-9.67,8-15.78,17.42-18.43,12.16-3.4,23.11-1.1,32.57,7.33,4.93,4.4,7.41,10.23,8.76,16.62,1.56,7.33,1.33,14.43-2.27,21.18-4.9,9.17-12.47,14-22.94,14.15-3.41,0-6.82,0-10.23,0-4.46,0-7.69-2.47-10.63-5.46a38.67,38.67,0,0,0-2.95-2.92c-1.56-1.3-2.77-1.28-4.44-.11-.84.58-1.65,1.22-2.48,1.83Zm44.71-20.78c.43.48.74.87,1.09,1.21,1.43,1.34,3.62,1,4-.9a48.35,48.35,0,0,0,.9-7.61c0-.44-.84-1.18-1.42-1.35-.87-.25-1.29.49-1.42,1.31-.06.39-.05.79-.09,1.18-.13,1.49-.27,3-.43,4.74-.36-.4-.55-.51-.59-.67a10.77,10.77,0,0,1-.53-2.28c-.06-1.23-.08-2.67-1.58-2.73s-1.42,1.38-1.55,2.47a2.86,2.86,0,0,1-.13.72c-.21.61-.46,1.2-.69,1.8a31.62,31.62,0,0,1-.69-3.1,2.12,2.12,0,0,0-1.28-1.32c-.35-.08-1.24.66-1.29,1.11a12.32,12.32,0,0,0,0,4.2c.65,2.67,2.49,3.24,4.79,1.71C245.23,58.07,245.49,57.93,245.81,57.74Zm-29-2.61c.35.85.57,1.39.77,1.93a10.38,10.38,0,0,0,.92,2.33c.34.48,1.1.66,1.67,1,.22-.55.66-1.13.6-1.65a19.87,19.87,0,0,0-.81-4.2c-.91-2.73-2.35-3.14-4.69-1.53l-.49.33a22.63,22.63,0,0,0-2.94-1.49,13.28,13.28,0,0,0-2.3-.24c-1.2-.18-1.84.28-1.79,1.49a37.34,37.34,0,0,0,.33,4.73,2.29,2.29,0,0,0,1.24,1.42c.31.14,1-.38,1.39-.77a7.88,7.88,0,0,0,.93-1.74,11.84,11.84,0,0,0,1.11,1.78c1,1.11,2,.88,2.57-.48C215.7,57.14,216.19,56.29,216.79,55.13Zm8.45,3.55.08-.61a13.24,13.24,0,0,1,2.09,0c1.74.29,3-.36,2.72-1.69A13,13,0,0,0,228.27,52c-1-1.4-2.75-1.21-3.77.2a10.32,10.32,0,0,0-2.29,6.58,3.94,3.94,0,0,0,1.19,2.8c1.92,1.35,4.15,1.08,6.21.18a2,2,0,0,0,.69-1.7c-.05-.39-.8-.88-1.32-1a16.33,16.33,0,0,0-2.21,0A8.59,8.59,0,0,1,225.24,58.68Zm5.67-1.78c.12,1.19,0,2.74,1.54,3.54s3,.05,4.25-.82a7,7,0,0,0,1-.84c1.58-1.56,1.52-5.46-.13-6.93a2.51,2.51,0,0,0-1.33-.52C233,51,230.89,53.12,230.91,56.9Z" transform="translate(-47.18 177.03)"/><path class="cls-1" d="M90.19,80.3c-.36,1-.54,1.5-.76,2-1.82,4.37-3.67,8.73-5.46,13.11a2.89,2.89,0,0,1-2.15,2,14.12,14.12,0,0,0-5.58,2.91c-2.13,1.66-4.53,3-6.81,4.44-1.62,1-3.22,2.09-4.75,3.27l17.4-9.4c.06.94.1,1.4.11,1.87.19,6.46.36,12.93.56,19.39.07,2.22-.3,2.83-2.82,3.83.59-2.89-1.6-3.51-3.44-4.44L49.41,105.63c-.34-.17-.66-.37-1.18-.67C61.9,96.27,75.48,87.79,90.19,80.3Z" transform="translate(-47.18 177.03)"/><path class="cls-1" d="M178.06,114.89a17.8,17.8,0,0,1,2,3.54c1,3.2,1.7,6.48,2.57,9.89l2.25-1a6.9,6.9,0,0,1-.32,5.11,17.77,17.77,0,0,1-8.76,8.67,10,10,0,0,0-3.25,2.23,18.05,18.05,0,0,1-13.71,5.95c-4.49.07-9,.38-13.47.57-3.69.15-4.94-.68-6.2-4.18-.46-1.29-.83-2.62-1.35-4.3l2.65,2c-.2-.9-.25-1.39-.41-1.85-1.19-3.5-2.43-7-3.6-10.5a15.31,15.31,0,0,1-.41-2.36l.56-.15c.34,1,.72,2,1,3.05a15.39,15.39,0,0,0,4.47,7.54c2,1.7,4.14,2.49,6.69,1.4s3.5-3.17,3.71-5.76a16.25,16.25,0,0,0-1.52-7.92l-.87-2a21.75,21.75,0,0,1,3.73-1.2,3.3,3.3,0,0,1,2.11.74c2.33,1.75,4.54,3.66,6.88,5.39,1.15.85,2.41,2.05,4,1.22s1.26-2.53,1.3-4c.05-2.36,0-4.72,0-7.08l.38-.12a8.2,8.2,0,0,1,.57,1.15c.38,1.22.7,2.46,1.06,3.7,1,3.56,3.71,5.22,7.13,5.86,1.81.34,3.15-.91,3.2-3a17.82,17.82,0,0,0-2-9.16,30.9,30.9,0,0,1-1.28-3ZM166.72,138l-4.15,7.17c2.48-.41,4-2.77,6.6-1.86A6.17,6.17,0,0,0,166.72,138Z" transform="translate(-47.18 177.03)"/><path class="cls-1" d="M139.45,113.8a12.26,12.26,0,0,1,3.21,5.77c0,.1,0,.2.07.29,1.12,4.39.64,5-4.16,4.71C138.85,121.12,139.13,117.68,139.45,113.8Z" transform="translate(-47.18 177.03)"/><path class="cls-1" d="M131.48,147.5c-1.6,1.52-2.42,1.61-3.9.26s-2.89-2.81-4.25-4.3a3.2,3.2,0,0,1-.72-1.71,1.53,1.53,0,0,1,.59-1.22,1.33,1.33,0,0,1,1.18.12A21.89,21.89,0,0,1,131.48,147.5Z" transform="translate(-47.18 177.03)"/><path class="cls-1" d="M157.38,153.59c.25,2.13-.38,3-2.37,3s-3.82-.14-5.73-.25c-1.26-.07-1.39-.92-1.17-1.89s.12-2.39,1.77-2.15C152.35,152.69,154.81,153.15,157.38,153.59Z" transform="translate(-47.18 177.03)"/><path class="cls-1" d="M144.26,114.31l8,6.88c-1.19.61-2.11,1.17-3.09,1.57a2.06,2.06,0,0,1-3-1.13c-.92-2.31-1.68-4.69-2.51-7Z" transform="translate(-47.18 177.03)"/><path class="cls-1" d="M170.5,115l-2.74.43c-.23-2.55-.44-5-.66-7.49l.51-.13Z" transform="translate(-47.18 177.03)"/><path class="cls-1" d="M172.36,114l-2.1-6.26.28-.22c1.18,1.25,2.45,2.43,3.5,3.78C174.74,112.18,174.14,113.07,172.36,114Z" transform="translate(-47.18 177.03)"/><path class="cls-1" d="M153.12,63.31a3.11,3.11,0,0,1,2.67,4.19C153.54,67.07,152.5,65.44,153.12,63.31Z" transform="translate(-47.18 177.03)"/><path class="cls-1" d="M113,84.26c-2.08.09-4.24-2-4-3.88a1.94,1.94,0,0,1,.78-1.29c.23-.14.91.2,1.22.49A6.2,6.2,0,0,1,113,84.26Z" transform="translate(-47.18 177.03)"/><path d="M245.81,57.74c-.32.19-.58.33-.82.49-2.3,1.53-4.14,1-4.79-1.71a12.32,12.32,0,0,1,0-4.2c0-.45.94-1.19,1.29-1.11a2.12,2.12,0,0,1,1.28,1.32,31.62,31.62,0,0,0,.69,3.1c.23-.6.48-1.19.69-1.8a2.86,2.86,0,0,0,.13-.72c.13-1.09.19-2.52,1.55-2.47s1.52,1.5,1.58,2.73a10.77,10.77,0,0,0,.53,2.28c0,.16.23.27.59.67.16-1.76.3-3.25.43-4.74,0-.39,0-.79.09-1.18.13-.82.55-1.56,1.42-1.31.58.17,1.45.91,1.42,1.35a48.35,48.35,0,0,1-.9,7.61c-.42,1.87-2.61,2.24-4,.9C246.55,58.61,246.24,58.22,245.81,57.74Z" transform="translate(-47.18 177.03)"/><path d="M216.79,55.13c-.6,1.16-1.09,2-1.49,2.89-.6,1.36-1.59,1.59-2.57.48a11.84,11.84,0,0,1-1.11-1.78,7.88,7.88,0,0,1-.93,1.74c-.35.39-1.08.91-1.39.77a2.29,2.29,0,0,1-1.24-1.42,37.34,37.34,0,0,1-.33-4.73c0-1.21.59-1.67,1.79-1.49a13.28,13.28,0,0,1,2.3.24,22.63,22.63,0,0,1,2.94,1.49l.49-.33c2.34-1.61,3.78-1.2,4.69,1.53a19.87,19.87,0,0,1,.81,4.2c.06.52-.38,1.1-.6,1.65-.57-.32-1.33-.5-1.67-1a10.38,10.38,0,0,1-.92-2.33C217.36,56.52,217.14,56,216.79,55.13Z" transform="translate(-47.18 177.03)"/><path d="M225.24,58.68a8.59,8.59,0,0,0,1.53.39,16.33,16.33,0,0,1,2.21,0c.52.11,1.27.6,1.32,1a2,2,0,0,1-.69,1.7c-2.06.9-4.29,1.17-6.21-.18a3.94,3.94,0,0,1-1.19-2.8,10.32,10.32,0,0,1,2.29-6.58c1-1.41,2.79-1.6,3.77-.2a13,13,0,0,1,1.86,4.41c.3,1.33-1,2-2.72,1.69a13.24,13.24,0,0,0-2.09,0Z" transform="translate(-47.18 177.03)"/><path d="M230.91,56.9c0-3.78,2.12-5.93,5.36-5.57a2.51,2.51,0,0,1,1.33.52c1.65,1.47,1.71,5.37.13,6.93a7,7,0,0,1-1,.84c-1.3.87-2.67,1.67-4.25.82S231,58.09,230.91,56.9Zm4-2.73-1,3C235.88,56.44,236.05,56,234.92,54.17Z" transform="translate(-47.18 177.03)"/><path d="M166.72,138a6.17,6.17,0,0,1,2.45,5.31c-2.56-.91-4.12,1.45-6.6,1.86Z" transform="translate(-47.18 177.03)"/><path class="cls-1" d="M234.92,54.17c1.13,1.82,1,2.27-1,3Z" transform="translate(-47.18 177.03)"/><path class="cls-2" d="M1206.48-8.55c8.34,16.8,12.19,35.72,15.81,54.43-2.38,22.53-8.4,44.19-20.33,62.66a110.72,110.72,0,0,1-10.58,13.87c-.56-1.28-1.18-2.53-1.83-3.77-13-24.63-40.75-38.55-66.32-34.8-7.7-20.62-22.07-38.26-39.56-50.76l.07-.25c5.64-20.94,13.79-41.7,27.8-57.32S1146.35-49.8,1166-45.18C1183.67-41,1197.87-25.9,1206.48-8.55Z" transform="translate(-47.18 177.03)"/><path class="cls-3" d="M1191.38,122.41c11.39,25.3,7.42,57.6-8.53,79.78a131.53,131.53,0,0,1-19.53-9.32q-21.45-12.12-42-26C1147.44,156.4,1172.72,143.31,1191.38,122.41Z" transform="translate(-47.18 177.03)"/><path class="cls-2" d="M1189.55,118.64c.65,1.24,1.27,2.49,1.83,3.77-18.66,20.9-43.94,34-70,44.43-1.06-.71-2.11-1.43-3.16-2.15a117,117,0,0,1-11.92-9.35c1.28-1,2.55-2,3.79-3.07,6.39-5.39,12.51-11.58,15.9-19.56,3.56-8.39,3.77-18,2.62-27.19a96.75,96.75,0,0,0-5.36-21.68C1148.8,80.09,1176.57,94,1189.55,118.64Z" transform="translate(-47.18 177.03)"/><path class="cls-4" d="M1128.59,105.52c1.15,9.15.94,18.8-2.62,27.19-3.39,8-9.51,14.17-15.9,19.56-1.24,1-2.51,2.08-3.79,3.07-13.65-12.26-24.51-28.61-18.89-45.73,3.26-10,11.66-17,20.58-21.2a54.27,54.27,0,0,1,15.26-4.57A96.75,96.75,0,0,1,1128.59,105.52Z" transform="translate(-47.18 177.03)"/><path class="cls-2" d="M1123.23,83.84A54.27,54.27,0,0,0,1108,88.41c-8.92,4.2-17.32,11.24-20.58,21.2-5.62,17.12,5.24,33.47,18.89,45.73a140.1,140.1,0,0,1-27.61,17,34.17,34.17,0,0,1-2.65-10,326.64,326.64,0,0,1,7.65-129.27C1101.16,45.58,1115.53,63.22,1123.23,83.84Z" transform="translate(-47.18 177.03)"/><path class="cls-5" d="M1076,162.35a34.17,34.17,0,0,0,2.65,10,137.72,137.72,0,0,1-49,12.64,79.68,79.68,0,0,0,6.45-11.34c8.88-19.2,10.82-41.43,9.35-62.86-2.3-33.66-13.19-67.4-34.55-91.88a100.85,100.85,0,0,0-7.55-7.78c19.33-.74,38.61,1.85,56.76,9.07a111.77,111.77,0,0,1,23.57,12.92A326.64,326.64,0,0,0,1076,162.35Z" transform="translate(-47.18 177.03)"/><path class="cls-4" d="M1045.44,110.75c1.47,21.43-.47,43.66-9.35,62.86a79.68,79.68,0,0,1-6.45,11.34,127.53,127.53,0,0,1-15.64.1c5.52-22.56.11-47.71-6.12-70.64C998.31,79.13,986,42.54,962,17.33a197.92,197.92,0,0,1,41.37-6.24,100.85,100.85,0,0,1,7.55,7.78C1032.25,43.35,1043.14,77.09,1045.44,110.75Z" transform="translate(-47.18 177.03)"/><path class="cls-2" d="M1007.88,114.41c6.23,22.93,11.64,48.08,6.12,70.64-2.19-.11-4.38-.29-6.57-.52a90.34,90.34,0,0,1-28.16-7.21c6.73-25.18,5-52.84-2.13-78.06a179.79,179.79,0,0,0-41.21-73.53l-.12-.13Q944,22.51,952.39,20q4.75-1.43,9.58-2.66C986,42.54,998.31,79.13,1007.88,114.41Z" transform="translate(-47.18 177.03)"/><path class="cls-2" d="M974.18,174.73c1.67.94,3.36,1.8,5.09,2.59a111.07,111.07,0,0,1-4.41,13.2c-.34.83-.69,1.66-1.05,2.48a407.31,407.31,0,0,1-61-52.77C903.19,130.13,893.6,119,886,106.86c-.82-2.7-1.72-5.37-2.67-8a170.88,170.88,0,0,0-11-24.09A76.25,76.25,0,0,1,870.65,61,280.29,280.29,0,0,1,907,38.46c1.55,27.4,10.89,54,22.31,78.66C939.84,140,953.3,162.91,974.18,174.73Z" transform="translate(-47.18 177.03)"/><path class="cls-6" d="M832.3,72.2a97.82,97.82,0,0,0,5.12,17.1A294.69,294.69,0,0,0,808.26,123c-9.38,12.65-17.82,28-22.29,43.67a24.87,24.87,0,0,1-3.16-.72c-7.12-2.12-13.12-7.46-18-13.52-23.28-29-22-75.36-2.55-107.53a115.07,115.07,0,0,1,31.31-33.64c.76.14,1.53.29,2.31.46a90.9,90.9,0,0,1,16.78,5.38,221.81,221.81,0,0,1,20.71,19.48A79.8,79.8,0,0,0,832.3,72.2Z" transform="translate(-47.18 177.03)"/><path class="cls-7" d="M799.74,7c-2.09,1.34-4.15,2.73-6.15,4.19C754.9,3.94,716.42,22.8,685.28,50.57A154,154,0,0,0,668.13,30C638.5.3,599.24-16.23,559.45-23.33a235.34,235.34,0,0,0-23.42-3q-6.53-3.75-13.16-7.22c-.78-1.14-1.58-2.27-2.39-3.4a191.76,191.76,0,0,1,53.29-17c51.57-8.41,104.45,2.78,153.49,22.05C752.33-22,777.36-9.21,799.74,7Z" transform="translate(-47.18 177.03)"/><path class="cls-8" d="M790.27,217.71c.11.18.22.36.35.54-22.48-3.86-44.28-12.7-66.06-20.36-8.85-3.12-17.78-6.06-26.75-8.91,8.35-11.81,12.7-26.67,14.26-41.53,3.57-34.4-7.41-69.15-26.79-96.88C716.42,22.8,754.9,3.94,793.59,11.23a115.07,115.07,0,0,0-31.31,33.64C742.81,77,741.55,123.38,764.83,152.4c4.86,6.06,10.86,11.4,18,13.52a24.87,24.87,0,0,0,3.16.72C780.91,184.33,780.9,202.46,790.27,217.71Z" transform="translate(-47.18 177.03)"/><path class="cls-9" d="M685.28,50.57c19.38,27.73,30.36,62.48,26.79,96.88-1.56,14.86-5.91,29.72-14.26,41.53l-4.54-1.43c-4.92-3.64-9.84-7.34-14.6-11.25a98.36,98.36,0,0,0,3.31-37c-2.23-22.72-10.71-43.05-22.87-61.33,1.76-2.2,3.59-4.35,5.44-6.44A243.63,243.63,0,0,1,685.28,50.57Z" transform="translate(-47.18 177.03)"/><path class="cls-3" d="M682,139.27a98.36,98.36,0,0,1-3.31,37c-8.1-6.66-15.68-14-21.86-22.67-10-14.06-15.83-32.66-11.62-49.81,2.4-9.76,7.77-18.2,13.92-25.88C671.27,96.22,679.75,116.55,682,139.27Z" transform="translate(-47.18 177.03)"/><path class="cls-10" d="M678.67,176.3c-.61,2.06-1.29,4.1-2,6.09-27.89-8.54-55.89-16.8-83-27.18,4.74-23.18,5-47.11-.8-70-7-27.54-22.24-52.1-41.64-71.41C546.48,4.5,541.3-4.52,536-13.33q-4.1-6.76-8.51-13.47c2.86.09,5.72.25,8.58.46A537.93,537.93,0,0,1,587.46,7.71c26.35,19.5,53.23,42.5,71.65,70.23-6.15,7.68-11.52,16.12-13.92,25.88-4.21,17.15,1.66,35.75,11.62,49.81C663,162.35,670.57,169.64,678.67,176.3Z" transform="translate(-47.18 177.03)"/><path class="cls-11" d="M668.13,30a154,154,0,0,1,17.15,20.53A243.63,243.63,0,0,0,664.55,71.5c-1.85,2.09-3.68,4.24-5.44,6.44-18.42-27.73-45.3-50.73-71.65-70.23a537.93,537.93,0,0,0-51.43-34,235.34,235.34,0,0,1,23.42,3C599.24-16.23,638.5.3,668.13,30Z" transform="translate(-47.18 177.03)"/><path class="cls-7" d="M676.62,182.39c-3.87,10.17-9.73,19.26-17.7,26.12a55.07,55.07,0,0,1-15.15,9.3,140.47,140.47,0,0,1-17.19,1.1,220.76,220.76,0,0,1-43.19-4.22q-5.11-1.91-10.09-4.18a202.7,202.7,0,0,0,20.33-55.3C620.73,165.59,648.73,173.85,676.62,182.39Z" transform="translate(-47.18 177.03)"/><path class="cls-12" d="M592.83,85.17c5.8,22.93,5.54,46.86.8,70-8.72-3.34-17.33-6.89-25.83-10.76,6.17-24.45,7.83-50,3.27-74.84-3.61-19.69-10.91-38.22-19.88-55.85C570.59,33.07,585.86,57.63,592.83,85.17Z" transform="translate(-47.18 177.03)"/><path d="M571.07,69.61c4.56,24.82,2.9,50.39-3.27,74.84a320,320,0,0,1-49.64-27.71c-31.51-21.7-60.42-54.17-67-93.26a164.68,164.68,0,0,1,36.4-39.79,56.22,56.22,0,0,1,7.57-.06C514.66-15.18,532.51-3.81,547.33,10c1.31,1.22,2.59,2.46,3.86,3.72C560.16,31.39,567.46,49.92,571.07,69.61Z" transform="translate(-47.18 177.03)"/><path class="cls-13" d="M567.8,144.45a219.19,219.19,0,0,1-20.55,51.8,502,502,0,0,1-86.52-69C449.46,116,438.2,103.44,434.41,87.34c-4.32-18.37,2-37.83,10.94-54.11q2.75-5,5.83-9.75c6.56,39.09,35.47,71.56,67,93.26A320,320,0,0,0,567.8,144.45Z" transform="translate(-47.18 177.03)"/><path class="cls-13" d="M451.15-2.77a38.44,38.44,0,0,0-1.34,12.6,97.56,97.56,0,0,0,1.37,13.65q-3.09,4.74-5.83,9.75c-9,16.28-15.26,35.74-10.94,54.11,3.79,16.1,15,28.7,26.32,39.91a502,502,0,0,0,86.52,69c-.54,1-1.09,2-1.64,2.94-.88,1.53-1.76,3.05-2.68,4.55A563.55,563.55,0,0,1,487.59,181c-28-13-55.73-27.38-83.65-39.8-29.28-13-61.74-26.15-77.54-56-7-13.29-10-28.75-10.78-44.06a163.54,163.54,0,0,1,7.62-59.34c17.34-17.92,38.7-31.26,61.83-37.91,44.79-12.87,90.47-1.36,133.25,20.19a184.65,184.65,0,0,0-17.83,10.28,134.17,134.17,0,0,0-33.75,8.7c-5.16,2.1-10.45,4.8-13.58,9.74A19,19,0,0,0,451.15-2.77Z" transform="translate(-47.18 177.03)"/><path class="cls-14" d="M438.51,318.37q3-17.3,7.42-34.26A424.59,424.59,0,0,1,487.59,181q3.72-6.56,7.67-12.95" transform="translate(-47.18 177.03)"/><path class="cls-14" d="M438.51,318.37a24.49,24.49,0,0,0-1.83,11.4C437.24,326,437.84,322.16,438.51,318.37Z" transform="translate(-47.18 177.03)"/><path class="cls-14" d="M387.75,128.39c-1.24-45.42,17.53-91,49.52-120.24A117.55,117.55,0,0,1,451.15-2.77c11.18-7.45,23.59-12.61,36.43-13.54a56.22,56.22,0,0,1,7.57-.06C514.66-15.18,532.51-3.81,547.33,10c1.31,1.22,2.59,2.46,3.86,3.72,19.4,19.31,34.67,43.87,41.64,71.41,5.8,22.93,5.54,46.86.8,70a202.7,202.7,0,0,1-20.33,55.3l-1,1.79c-3.11,5.62-6.45,11.08-10,16.32-20.73,30.66-50.89,56.94-85.83,59.13a78.35,78.35,0,0,1-8.53.06,97.79,97.79,0,0,1-22-3.7c-14-3.92-27.69-10.45-40.77-17.36-41.83-22.05-83.24-50.44-106.76-94C276.19,131.56,272.81,79,289.52,34.92a156.12,156.12,0,0,1,33.72-53.09c17.34-17.92,38.7-31.26,61.83-37.91,44.79-12.87,90.47-1.36,133.25,20.19q2.28,1.14,4.55,2.33,6.63,3.47,13.16,7.22A537.93,537.93,0,0,1,587.46,7.71c26.35,19.5,53.23,42.5,71.65,70.23,12.16,18.28,20.64,38.61,22.87,61.33a98.36,98.36,0,0,1-3.31,37c-.61,2.06-1.29,4.1-2,6.09-3.87,10.17-9.73,19.26-17.7,26.12a55.07,55.07,0,0,1-15.15,9.3c-18.45,7.52-39.91,4.57-60.38-3.12q-5.11-1.91-10.09-4.18a203.75,203.75,0,0,1-22.92-12.31l-3.13-1.95a502,502,0,0,1-86.52-69C449.46,116,438.2,103.44,434.41,87.34c-4.32-18.37,2-37.83,10.94-54.11q2.75-5,5.83-9.75a164.68,164.68,0,0,1,36.4-39.79q6.24-4.95,12.91-9.3a184.65,184.65,0,0,1,17.83-10.28c.72-.37,1.44-.72,2.16-1.07a191.76,191.76,0,0,1,53.29-17c51.57-8.41,104.45,2.78,153.49,22.05C752.33-22,777.36-9.21,799.74,7q6.63,4.8,12.94,10a221.81,221.81,0,0,1,20.71,19.48,188.29,188.29,0,0,1,25.2,33.71,169.77,169.77,0,0,1,13.52,29.36c4.6,13.17,7,29.42.38,40.83a24.83,24.83,0,0,1-3.17,4.32c-4.79,5.2-11.43,7.73-17.91,9.86a284,284,0,0,1-49.76,11.59c-5.19.72-10.54,1.29-15.68.42a24.87,24.87,0,0,1-3.16-.72c-7.12-2.12-13.12-7.46-18-13.52-23.28-29-22-75.36-2.55-107.53a115.07,115.07,0,0,1,31.31-33.64c2-1.46,4.06-2.85,6.15-4.19a147.2,147.2,0,0,1,51.08-20.1c20.46-4,42.09-3.88,62.19,1.54q2.72.73,5.41,1.59A103.52,103.52,0,0,1,953.13,9,105.28,105.28,0,0,1,962,17.33c24,25.21,36.34,61.8,45.91,97.08,6.23,22.93,11.64,48.08,6.12,70.64a67.68,67.68,0,0,1-3.84,11.29,65,65,0,0,1-6.47,11.33c-.64.9-1.3,1.78-2,2.65-9.08,11.62-21.63,20.26-34.5,26.81a173.52,173.52,0,0,1-66.48,18.4,172.21,172.21,0,0,1-73.51-10.76c-14.07-5.38-28.17-13.19-36.59-26.52-.13-.18-.24-.36-.35-.54-9.37-15.25-9.36-33.38-4.3-51.07,4.47-15.68,12.91-31,22.29-43.67A294.69,294.69,0,0,1,837.42,89.3q10.16-10.08,21.17-19,3.69-3,7.49-5.91c1.52-1.15,3-2.28,4.57-3.4A280.29,280.29,0,0,1,907,38.46,264.83,264.83,0,0,1,935.81,25.6Q944,22.51,952.39,20q4.75-1.43,9.58-2.66a197.92,197.92,0,0,1,41.37-6.24c19.33-.74,38.61,1.85,56.76,9.07a111.77,111.77,0,0,1,23.57,12.92c17.49,12.5,31.86,30.14,39.56,50.76a96.75,96.75,0,0,1,5.36,21.68c1.15,9.15.94,18.8-2.62,27.19-3.39,8-9.51,14.17-15.9,19.56-1.24,1-2.51,2.08-3.79,3.07a140.1,140.1,0,0,1-27.61,17,137.72,137.72,0,0,1-49,12.64,127.53,127.53,0,0,1-15.64.1c-2.19-.11-4.38-.29-6.57-.52a90.34,90.34,0,0,1-28.16-7.21c-1.73-.79-3.42-1.65-5.09-2.59-20.88-11.82-34.34-34.73-44.91-57.61C917.85,92.45,908.51,65.86,907,38.46c-.22-3.82-.3-7.65-.19-11.5a142.22,142.22,0,0,1,2.35-22.13q1.1-6,2.64-11.81c.39-1.52.81-3,1.25-4.54A217.35,217.35,0,0,1,929.16-51c20.8-39.9,51.07-73.9,87.08-97.8,30.94-20.55,68.18-33.79,103.53-25,32,7.93,58.77,33.34,75.41,64.09s24,66.48,27.1,102c1.53,17.65,1.9,35.88,0,53.57-2.38,22.53-8.4,44.19-20.33,62.66a110.72,110.72,0,0,1-10.58,13.87c-18.66,20.9-43.94,34-70,44.43-8.83,3.53-17.75,6.76-26.54,9.88-3.5,1.24-7.31,2.48-10.77,1.11a10.45,10.45,0,0,1-5.38-5.52,34.17,34.17,0,0,1-2.65-10,326.64,326.64,0,0,1,7.65-129.27l.07-.25c5.64-20.94,13.79-41.7,27.8-57.32S1146.35-49.8,1166-45.18c17.71,4.18,31.91,19.28,40.52,36.63,8.34,16.8,12.19,35.72,15.81,54.43.12.6.23,1.19.35,1.79q6.58,34,13.16,68c3.07,15.88,6.15,32.13,4.17,48.21s-10.07,32.23-23.73,38.75c-10.6,5.06-22.18,3.62-33.39-.44a131.53,131.53,0,0,1-19.53-9.32q-21.45-12.12-42-26c-1.06-.71-2.11-1.43-3.16-2.15a117,117,0,0,1-11.92-9.35c-13.65-12.26-24.51-28.61-18.89-45.73,3.26-10,11.66-17,20.58-21.2a54.27,54.27,0,0,1,15.26-4.57c25.57-3.75,53.34,10.17,66.32,34.8.65,1.24,1.27,2.49,1.83,3.77,11.39,25.3,7.42,57.6-8.53,79.78a67.19,67.19,0,0,1-8.43,9.68c-13.7,12.94-31.55,19.69-49.46,22.91-42.5,7.63-84.55-3.29-123.26-24.46-.64-.34-1.28-.69-1.91-1a304.56,304.56,0,0,1-26-16.27,407.31,407.31,0,0,1-61-52.77C903.19,130.13,893.6,119,886,106.86c-6.26-10-11.17-20.7-13.64-32.08A76.25,76.25,0,0,1,870.65,61c0-.76,0-1.52,0-2.29,0-23.08,12-44.54,29.29-58.06A72.5,72.5,0,0,1,911.76-7a68.09,68.09,0,0,1,6.66-2.95,62,62,0,0,1,8.17-2.5c26.95-6.28,55.7,4,76.75,23.52a100.85,100.85,0,0,1,7.55,7.78c21.36,24.48,32.25,58.22,34.55,91.88,1.47,21.43-.47,43.66-9.35,62.86a79.68,79.68,0,0,1-6.45,11.34c-6.75,9.89-15.71,18-26,22.72-1.28.59-2.58,1.12-3.9,1.6a46.58,46.58,0,0,1-8.8,2.25c-8.74,1.34-17.42.15-25.85-2.58-11.13-3.59-21.85-9.88-31.76-16.59A361.62,361.62,0,0,1,891,158.73q-9.54-8.76-18.49-18.28l-.2-.21c-14-14.85-27.17-31.64-34.87-50.94a97.82,97.82,0,0,1-5.12-17.1,79.8,79.8,0,0,1,1.09-35.65c.54-2.06,1.18-4.08,1.9-6,4.45-12.35,12.21-22.9,23.17-28.81C871.54-5.37,886.07-4.67,899.89.6a80.29,80.29,0,0,1,9.23,4.23A106.41,106.41,0,0,1,935.81,25.6l.12.13a179.79,179.79,0,0,1,41.21,73.53c7.17,25.22,8.86,52.88,2.13,78.06a111.07,111.07,0,0,1-4.41,13.2c-.34.83-.69,1.66-1.05,2.48a103.46,103.46,0,0,1-8.67,15.94c-15.17,22.89-38.53,38.52-64.42,46.59a142.21,142.21,0,0,1-61.7,5.09c-52.11-7.36-98.52-38.31-142.11-70.39l-3-2.22-.63-.46c-4.92-3.64-9.84-7.34-14.6-11.25-8.1-6.66-15.68-14-21.86-22.67-10-14.06-15.83-32.66-11.62-49.81,2.4-9.76,7.77-18.2,13.92-25.88,1.76-2.2,3.59-4.35,5.44-6.44a243.63,243.63,0,0,1,20.73-20.93C716.42,22.8,754.9,3.94,793.59,11.23c.76.14,1.53.29,2.31.46a90.9,90.9,0,0,1,16.78,5.38A105,105,0,0,1,835.29,30.5a138.06,138.06,0,0,1,30.79,33.85c2.22,3.38,4.32,6.87,6.29,10.43a170.88,170.88,0,0,1,11,24.09c.95,2.62,1.85,5.29,2.67,8,5.12,16.76,7.59,34.94,5,51.87a72.92,72.92,0,0,1-7.51,23.16c-14.49,27.27-45.89,39.28-74.82,38.28a132.66,132.66,0,0,1-18-1.92c-22.48-3.86-44.28-12.7-66.06-20.36-8.85-3.12-17.78-6.06-26.75-8.91l-4.54-1.43q-8.29-2.62-16.65-5.16c-27.89-8.54-55.89-16.8-83-27.18-8.72-3.34-17.33-6.89-25.83-10.76a320,320,0,0,1-49.64-27.71c-31.51-21.7-60.42-54.17-67-93.26a97.56,97.56,0,0,1-1.37-13.65,38.44,38.44,0,0,1,1.34-12.6,19,19,0,0,1,2-4.4c3.13-4.94,8.42-7.64,13.58-9.74a134.17,134.17,0,0,1,33.75-8.7,170.75,170.75,0,0,1,27-1.19c2.86.09,5.72.25,8.58.46a235.34,235.34,0,0,1,23.42,3C599.24-16.23,638.5.3,668.13,30a154,154,0,0,1,17.15,20.53c19.38,27.73,30.36,62.48,26.79,96.88-1.56,14.86-5.91,29.72-14.26,41.53-.29.42-.59.84-.9,1.25-.43.57-.87,1.14-1.32,1.7-12.84,16-32.08,23.34-51.82,25.88a140.47,140.47,0,0,1-17.19,1.1,220.76,220.76,0,0,1-43.19-4.22q-5.57-1.06-11.06-2.39c-9.89-2.34-19.68-5.24-29.4-8.56A563.55,563.55,0,0,1,487.59,181c-28-13-55.73-27.38-83.65-39.8-29.28-13-61.74-26.15-77.54-56-7-13.29-10-28.75-10.78-44.06a163.54,163.54,0,0,1,7.62-59.34,133.23,133.23,0,0,1,24.28-44.56C370.8-90.41,407.1-105.57,441-98.41c32.77,6.92,58.64,32.22,79.53,61.45.81,1.13,1.61,2.26,2.39,3.4q2.34,3.36,4.58,6.76,4.41,6.69,8.51,13.47c5.34,8.81,10.52,17.83,15.23,27.09,9,17.63,16.27,36.16,19.88,55.85,4.56,24.82,2.9,50.39-3.27,74.84a219.19,219.19,0,0,1-20.55,51.8c-.54,1-1.09,2-1.64,2.94-.88,1.53-1.76,3.05-2.68,4.55-19.66,32.83-46.3,60.11-75,84.07q-4.62,3.84-9.28,7.58c-7.82,6.26-16.43,13.79-20.18,23" transform="translate(-47.18 177.03)"/><rect class="cls-15" x="231.32" y="309.53" width="162" height="61"/><rect class="cls-16" x="584.32" y="223.53" width="234" height="94"/></svg>